<?xml version="1.0" encoding="iso-8859-1"?>
<!-- Generator: Adobe Illustrator 19.0.0, SVG Export Plug-In . SVG Version: 6.00 Build 0)  -->
<svg version="1.1" id="Capa_1" xmlns="http://www.w3.org/2000/svg" xmlns:xlink="http://www.w3.org/1999/xlink" x="0px" y="0px"
	 viewBox="0 0 512 512" style="enable-background:new 0 0 512 512;" xml:space="preserve">
<g>
	<g>
		<path d="M504.5,374.499c-4.143,0-7.5,3.357-7.5,7.5V404.5H15V220.667c0-4.143-3.358-7.5-7.5-7.5s-7.5,3.357-7.5,7.5V412
			c0,4.143,3.358,7.5,7.5,7.5h497c4.143,0,7.5-3.357,7.5-7.5v-30.001C512,377.856,508.643,374.499,504.5,374.499z"/>
	</g>
</g>
<g>
	<g>
		<path d="M474.5,182.5H241.424c-4.142,0-7.5,3.357-7.5,7.5v192c0,4.143,3.358,7.5,7.5,7.5H474.5c4.143,0,7.5-3.357,7.5-7.5V190
			C482,185.857,478.643,182.5,474.5,182.5z M467,374.5H248.924v-177H467V374.5z"/>
	</g>
</g>
<g>
	<g>
		<path d="M504.5,92.5h-32c-4.143,0-7.5,3.357-7.5,7.5s3.357,7.5,7.5,7.5H497v45H105v-45h334.126c4.143,0,7.5-3.357,7.5-7.5
			s-3.357-7.5-7.5-7.5H97.5h-90C3.358,92.5,0,95.857,0,100v90.001c0,4.143,3.358,7.5,7.5,7.5s7.5-3.357,7.5-7.5V167.5h482v181.25
			c0,4.143,3.357,7.5,7.5,7.5s7.5-3.357,7.5-7.5V100C512,95.857,508.643,92.5,504.5,92.5z M90,152.5H15v-45h75V152.5z"/>
	</g>
</g>
<g>
	<g>
		<path d="M205.694,183.37h-168c-4.142,0-7.5,3.357-7.5,7.5V382c0,4.143,3.358,7.5,7.5,7.5h168c4.142,0,7.5-3.357,7.5-7.5V190.87
			C213.194,186.727,209.836,183.37,205.694,183.37z M164.207,374.5H79.181v-30.668c0-23.441,19.071-42.513,42.513-42.513
			c23.442,0,42.513,19.071,42.513,42.513V374.5z M100.796,265.422c0-11.522,9.375-20.897,20.897-20.897
			c11.522,0,20.897,9.375,20.897,20.897c0,11.522-9.375,20.897-20.897,20.897C110.171,286.319,100.796,276.944,100.796,265.422z
			 M198.194,374.5h-18.987v-30.668c0-23.006-13.584-42.89-33.147-52.08c7.085-6.562,11.531-15.935,11.531-26.33
			c0-19.794-16.104-35.897-35.897-35.897c-19.793,0-35.897,16.104-35.897,35.897c0,10.396,4.446,19.769,11.531,26.33
			c-19.563,9.19-33.147,29.074-33.147,52.08V374.5H45.194V198.37h153V374.5z"/>
	</g>
</g>
<g>
	<g>
		<path d="M391,223.702H279.721c-4.143,0-7.5,3.357-7.5,7.5s3.357,7.5,7.5,7.5H391c4.143,0,7.5-3.357,7.5-7.5
			S395.143,223.702,391,223.702z"/>
	</g>
</g>
<g>
	<g>
		<path d="M345.667,262.289h-65.946c-4.143,0-7.5,3.357-7.5,7.5s3.357,7.5,7.5,7.5h65.946c4.143,0,7.5-3.357,7.5-7.5
			S349.81,262.289,345.667,262.289z"/>
	</g>
</g>
<g>
	<g>
		<path d="M439.126,262.289H373.18c-4.143,0-7.5,3.357-7.5,7.5s3.357,7.5,7.5,7.5h65.946c4.143,0,7.5-3.357,7.5-7.5
			S443.269,262.289,439.126,262.289z"/>
	</g>
</g>
<g>
	<g>
		<path d="M437.667,298.943H279.721c-4.143,0-7.5,3.357-7.5,7.5s3.357,7.5,7.5,7.5h157.946c4.143,0,7.5-3.357,7.5-7.5
			S441.81,298.943,437.667,298.943z"/>
	</g>
</g>
<g>
	<g>
		<path d="M437.667,336.564H279.721c-4.143,0-7.5,3.357-7.5,7.5s3.357,7.5,7.5,7.5h157.946c4.143,0,7.5-3.357,7.5-7.5
			S441.81,336.564,437.667,336.564z"/>
	</g>
</g>
<g>
	<g>
		<path d="M439.126,223.702h-16.793c-4.143,0-7.5,3.357-7.5,7.5s3.357,7.5,7.5,7.5h16.793c4.143,0,7.5-3.357,7.5-7.5
			S443.269,223.702,439.126,223.702z"/>
	</g>
</g>
<g>
</g>
<g>
</g>
<g>
</g>
<g>
</g>
<g>
</g>
<g>
</g>
<g>
</g>
<g>
</g>
<g>
</g>
<g>
</g>
<g>
</g>
<g>
</g>
<g>
</g>
<g>
</g>
<g>
</g>
</svg>
