<?xml version="1.0" encoding="utf-8"?>
<!-- Generator: Adobe Illustrator 21.0.0, SVG Export Plug-In . SVG Version: 6.00 Build 0)  -->
<svg version="1.1" id="Layer_1" xmlns="http://www.w3.org/2000/svg" xmlns:xlink="http://www.w3.org/1999/xlink" x="0px" y="0px"
	 viewBox="0 0 512 512" style="enable-background:new 0 0 512 512;" xml:space="preserve">
<style type="text/css">
	.st0{fill:#8BB820;}
	.st1{fill:#FFFFFF;}
</style>
<circle class="st0" cx="256" cy="256" r="256"/>
<path id="symbol_2_" class="st1" d="M367.8,228.2c4.7-29.9-19.3-45.9-52.2-56.6l10.7-40.4l-26-6.1l-10.4,39.4
	c-6.8-1.6-13.9-3.1-20.9-4.6l10.5-39.6l-26-6.1l-10.7,40.4c-5.7-1.2-11.2-2.4-16.6-3.7l0-0.1l-35.9-8.5l-6.9,26.3
	c0,0,19.3,4.2,18.9,4.4c10.5,2.5,12.5,9.1,12.1,14.3l-12.1,46.1c0.7,0.2,1.7,0.4,2.7,0.8c-0.9-0.2-1.8-0.4-2.8-0.6l-17,64.5
	c-1.3,3-4.6,7.6-11.9,5.8c0.3,0.4-18.9-4.5-18.9-4.5l-12.9,28.2l33.9,8c6.3,1.5,12.5,3.1,18.6,4.5L183,381l26,6.1l10.7-40.5
	c7.1,1.8,14,3.5,20.8,5.1L229.8,392l26,6.1l10.8-40.8c44.4,7.9,77.8,4.7,91.9-33.2c11.3-30.6-0.6-48.2-23.9-59.7
	C351.5,260.7,364.4,250.1,367.8,228.2z M308.3,307.1c-8,30.6-62.5,14-80.2,9.9l14.3-54.2C260.1,267,316.7,275.2,308.3,307.1z
	 M316.3,227.8c-7.3,27.8-52.7,13.7-67.4,10.2l13-49.1C276.6,192.3,324,198.8,316.3,227.8z"/>
</svg>
