<?xml version="1.0" encoding="utf-8"?>
<!-- Generator: Adobe Illustrator 21.0.0, SVG Export Plug-In . SVG Version: 6.00 Build 0)  -->
<svg version="1.1" id="Layer_1" xmlns="http://www.w3.org/2000/svg" xmlns:xlink="http://www.w3.org/1999/xlink" x="0px" y="0px"
	 viewBox="0 0 512 512" style="enable-background:new 0 0 512 512;" xml:space="preserve">
<style type="text/css">
	.st0{fill:url(#SVGID_1_);}
	.st1{fill:url(#SVGID_2_);}
	.st2{fill:url(#SVGID_3_);}
</style>
<g>
	<linearGradient id="SVGID_1_" gradientUnits="userSpaceOnUse" x1="228.126" y1="294.0042" x2="309.1248" y2="294.0042">
		<stop  offset="0" style="stop-color:#F9AA4C"/>
		<stop  offset="1" style="stop-color:#F7941F"/>
	</linearGradient>
	<path class="st0" d="M242.4,262.8L228.1,317c17.7,4.1,72.1,20.7,80.2-9.9C316.7,275.2,260.1,267,242.4,262.8z"/>
	<linearGradient id="SVGID_2_" gradientUnits="userSpaceOnUse" x1="248.968" y1="216.7811" x2="317.1638" y2="216.7811">
		<stop  offset="0" style="stop-color:#F9AA4C"/>
		<stop  offset="1" style="stop-color:#F7941F"/>
	</linearGradient>
	<path class="st1" d="M261.9,188.9L249,238c14.7,3.5,60,17.6,67.4-10.2C324,198.8,276.6,192.3,261.9,188.9z"/>
	<linearGradient id="SVGID_3_" gradientUnits="userSpaceOnUse" x1="0" y1="256" x2="512" y2="256">
		<stop  offset="0" style="stop-color:#F9AA4C"/>
		<stop  offset="1" style="stop-color:#F7941F"/>
	</linearGradient>
	<path class="st2" d="M256,0C114.6,0,0,114.6,0,256s114.6,256,256,256s256-114.6,256-256S397.4,0,256,0z M367.8,228.2
		c-3.4,21.9-16.2,32.4-33.3,36.1c23.4,11.5,35.3,29.1,23.9,59.7c-14.1,38-47.5,41.2-91.9,33.2l-10.8,40.8l-26-6.1l10.6-40.3
		c-6.8-1.6-13.6-3.3-20.8-5.1L209,387.1l-26-6.1l10.8-40.9c-6.1-1.5-12.3-3-18.6-4.5l-33.9-8l12.9-28.2c0,0,19.2,4.8,18.9,4.5
		c7.4,1.7,10.6-2.8,11.9-5.8l17-64.5c1,0.2,1.9,0.4,2.8,0.6c-1-0.4-2-0.6-2.7-0.8l12.1-46.1c0.3-5.2-1.6-11.8-12.1-14.3
		c0.4-0.3-18.9-4.4-18.9-4.4l6.9-26.3l35.9,8.5l0,0.1c5.4,1.3,11,2.5,16.6,3.7l10.7-40.4l26,6.1L269,159.8c7,1.5,14,3,20.9,4.6
		l10.4-39.4l26,6.1l-10.7,40.4C348.5,182.4,372.5,198.4,367.8,228.2z"/>
</g>
</svg>
