<?xml version="1.0" encoding="utf-8"?>
<!-- Generator: Adobe Illustrator 21.0.0, SVG Export Plug-In . SVG Version: 6.00 Build 0)  -->
<svg version="1.1" id="Layer_1" xmlns="http://www.w3.org/2000/svg" xmlns:xlink="http://www.w3.org/1999/xlink" x="0px" y="0px"
	 viewBox="0 0 512 512" style="enable-background:new 0 0 512 512;" xml:space="preserve">
<path d="M480.6,341.4c-11.3,0-20.4,9.1-20.4,20.4v98.4H51.8v-98.4c0-11.3-9.1-20.4-20.4-20.4S11,350.5,11,361.8v118.8
	c0,11.3,9.1,20.4,20.4,20.4h449.2c11.3,0,20.4-9.1,20.4-20.4V361.8C501,350.5,491.9,341.4,480.6,341.4z"/>
<path d="M241,20.6L123.7,146.7c-7.6,8.3-7.2,21.2,1.1,28.9c8.3,7.6,21.2,7.2,28.9-1.1l81.9-88.1v265.3c0,11.3,9.1,20.4,20.4,20.4
	c11.3,0,20.4-9.1,20.4-20.4V86.5l81.9,88.1c7.6,8.3,20.5,8.8,28.8,1.1c8.3-7.7,8.8-20.6,1.1-28.9L270.9,20.6
	C266.6,15.4,252.5,9,241,20.6L241,20.6z"/>
</svg>
