<svg xmlns="http://www.w3.org/2000/svg" height="750pt" version="1.1" viewBox="0 -25 750 750" width="750pt">
<g id="surface1">
<path d="M 712.5 0 L 37.5 0 C 16.792969 0 0 16.792969 0 37.5 L 0 487.5 C 0 508.207031 16.792969 525 37.5 525 L 300 525 L 300 625 L 175 625 C 168.09375 625 162.5 630.59375 162.5 637.5 L 162.5 687.5 C 162.5 694.40625 168.09375 700 175 700 L 575 700 C 581.90625 700 587.5 694.40625 587.5 687.5 L 587.5 637.5 C 587.5 630.59375 581.90625 625 575 625 L 450 625 L 450 525 L 712.5 525 C 733.207031 525 750 508.207031 750 487.5 L 750 37.5 C 750 16.792969 733.207031 0 712.5 0 Z M 37.5 25 L 712.5 25 C 719.40625 25 725 30.59375 725 37.5 L 725 425 L 25 425 L 25 37.5 C 25 30.59375 30.59375 25 37.5 25 Z M 562.5 675 L 187.5 675 L 187.5 650 L 562.5 650 Z M 425 625 L 325 625 L 325 525 L 425 525 Z M 725 487.5 C 725 494.40625 719.40625 500 712.5 500 L 687.5 500 L 687.5 475 L 662.5 475 L 662.5 500 L 637.5 500 L 637.5 475 L 612.5 475 L 612.5 500 L 37.5 500 C 30.59375 500 25 494.40625 25 487.5 L 25 450 L 725 450 Z M 725 487.5 " style=" stroke:none;fill-rule:nonzero;fill:rgb(0%,0%,0%);fill-opacity:1;" />
<path d="M 75 75 L 112.5 75 L 112.5 50 L 75 50 C 61.191406 50 50 61.191406 50 75 L 50 112.5 L 75 112.5 Z M 75 75 " style=" stroke:none;fill-rule:nonzero;fill:rgb(0%,0%,0%);fill-opacity:1;" />
</g>
</svg>