<?xml version='1.0' encoding='utf-8'?>
<!DOCTYPE svg PUBLIC '-//W3C//DTD SVG 1.1//EN' 'http://www.w3.org/Graphics/SVG/1.1/DTD/svg11.dtd'>
<svg version="1.1" xmlns="http://www.w3.org/2000/svg" viewBox="0 0 512 512" xmlns:xlink="http://www.w3.org/1999/xlink" enable-background="new 0 0 512 512">
  <g>
    <g>
      <path d="M480.6,11H31.4C20.1,11,11,20.1,11,31.4v449.2c0,11.3,9.1,20.4,20.4,20.4h449.2c11.3,0,20.4-9.1,20.4-20.4V31.4    C501,20.1,491.9,11,480.6,11z M460.2,460.2H51.8V51.8h408.3V460.2z"/>
      <path d="m220.5,174.1h161.3c11.3,0 20.4-9.1 20.4-20.4 0-11.3-9.1-20.4-20.4-20.4h-161.3c-11.3,0-20.4,9.1-20.4,20.4 0,11.2 9.1,20.4 20.4,20.4z"/>
      <path d="m220.5,276.4h161.3c11.3,0 20.4-9.1 20.4-20.4 0-11.3-9.1-20.4-20.4-20.4h-161.3c-11.3,0-20.4,9.1-20.4,20.4 0,11.3 9.1,20.4 20.4,20.4z"/>
      <path d="m220.5,378.8h161.3c11.3,0 20.4-9.1 20.4-20.4 0-11.3-9.1-20.4-20.4-20.4h-161.3c-11.3,0-20.4,9.1-20.4,20.4 0,11.2 9.1,20.4 20.4,20.4z"/>
      <circle cx="132.1" cy="358.4" r="20.4"/>
      <circle cx="132.1" cy="256" r="20.4"/>
      <circle cx="132.1" cy="153.6" r="20.4"/>
    </g>
  </g>
</svg>
