<?xml version='1.0' encoding='utf-8'?>
<!DOCTYPE svg PUBLIC '-//W3C//DTD SVG 1.1//EN' 'http://www.w3.org/Graphics/SVG/1.1/DTD/svg11.dtd'>
<svg version="1.1" xmlns="http://www.w3.org/2000/svg" viewBox="0 0 512 512" xmlns:xlink="http://www.w3.org/1999/xlink" enable-background="new 0 0 512 512">
  <g>
    <g>
      <path d="m146.2,86.1c68.3-43.8 155.5-41.9 221.2,1.1l-20.3,2.5c-11.2,1.4-19.1,11.6-17.8,22.8 1.3,10.3 10.1,17.9 20.2,17.9 0.8,0 72.4-8.8 72.4-8.8 5.4-0.7 10.3-3.4 13.6-7.7 3.3-4.3 4.8-9.7 4.1-15.1l-8.7-69.9c-1.4-11.2-11.7-19.2-22.8-17.7-11.2,1.4-19.1,11.6-17.7,22.8l2.7,21.3c-79.3-53.9-185.8-57-268.9-3.6-97.1,62.3-137.5,185.5-96.1,293 3.1,8.1 13.2,16.2 26.4,11.7 10.7-3.7 15.8-15.9 11.7-26.4-34.4-89.5-0.8-192 80-243.9z"/>
      <path d="m484,168.4c-3.1-8.1-13.2-16.2-26.4-11.7-10.7,3.7-15.8,15.9-11.7,26.4 34.5,89.5 0.8,192-80,243.9-68.3,43.8-155.5,41.9-221.2-1.1l20.3-2.5c11.2-1.4 19.1-11.6 17.8-22.8-1.3-10.3-10.1-17.9-20.2-17.9-0.8,0-72.4,8.8-72.4,8.8-5.4,0.7-10.3,3.4-13.6,7.7-3.3,4.3-4.8,9.7-4.1,15.1l8.7,69.9c1.4,11.2 11.7,19.2 22.8,17.7 11.2-1.4 19.1-11.6 17.7-22.8l-2.7-21.3c79.4,53.8 185.9,56.9 269.1,3.5 96.9-62.2 137.3-185.4 95.9-292.9z"/>
    </g>
  </g>
</svg>
