<svg height="511pt" viewBox="-31 0 511 511.99874" width="511pt" xmlns="http://www.w3.org/2000/svg"><path d="m445.144531 231.886719c14.585938-97.109375-5.539062-178.046875-6.402343-181.445313-1.667969-6.558594-6.539063-11.828125-12.945313-14.003906-6.40625-2.179688-13.480469-.96875-18.796875 3.21875-.394531.308594-39.316406 30.492188-87.167969 30.492188-24.023437 0-44.859375-7.96875-60.140625-26.871094-7.859375-9.71875-11.941406-18.910156-15.140625-29.121094-2.488281-8.363281-10.140625-14.09375-18.980469-14.15625-8.191406-.078125-15.394531 4.9375-18.5 12.285156-1.234374 2.898438-3.773437 15.554688-14.96875 29.910156-14.019531 17.976563-33.695312 27.371094-58.476562 27.921876-48.535156 1.085937-89.328125-30.183594-89.691406-30.464844-5.316406-4.183594-12.390625-5.394532-18.796875-3.21875-6.40625 2.179687-11.277344 7.449218-12.945313 14.007812-.863281 3.394532-20.992187 84.335938-6.40625 181.441406 8.105469 53.949219 26.039063 106.339844 56.925782 152.625 36.5 54.707032 88.578124 97.042969 154.785156 125.832032.011718.003906.023437.007812.039062.015625 5.0625 2.191406 10.800782 2.191406 15.867188 0 .011718-.007813.027344-.011719.039062-.015625 66.203125-28.789063 118.28125-71.125 154.785156-125.832032 30.878907-46.285156 48.816407-98.675781 56.917969-152.621093zm-125.355469-121.75c34.550782 0 64.925782-11.785157 85.289063-22.417969 7.152344 48.109375 7.359375 100.140625-1.140625 148.351562h-158.476562v-150.753906c21.148437 17.097656 46.582031 24.820313 74.328124 24.820313zm-273.941406-22.417969c21.03125 10.976562 52.738282 23.1875 88.667969 22.378906 31.847656-.707031 54.824219-11.742187 70.953125-24.78125v150.753906h-158.476562c-8.484376-48.105468-8.308594-100.144531-1.144532-148.351562zm50.53125 275.203125c-17.347656-25.855469-30.742187-54.945313-40.078125-86.859375h149.167969v184.050781c-45.613281-24.554687-82.226562-57.152343-109.089844-97.191406zm258.171875 0c-26.863281 40.039063-63.476562 72.636719-109.089843 97.191406v-184.050781h149.164062c-9.332031 31.914062-22.726562 61.003906-40.074219 86.859375zm0 0"/></svg>